HIERARCHY
ROOT Pelvis
{
	OFFSET 0.000000 0.941512 0.000000
	CHANNELS 6 Xposition Yposition Zposition Zrotation Yrotation Xrotation 
	JOINT Pelvis_L_Hip
	{
		OFFSET 0.000000 0.000000 0.000000
		CHANNELS 3 Zrotation Yrotation Xrotation
		JOINT L_Hip
		{
			OFFSET 0.062321 -0.080322 -0.016990
			CHANNELS 3 Zrotation Yrotation Xrotation
			JOINT L_Knee
			{
				OFFSET 0.093051 -0.381305 -0.029784
				CHANNELS 3 Zrotation Yrotation Xrotation
				JOINT L_Ankle
				{
					OFFSET -0.010371 -0.431000 -0.033614
					CHANNELS 3 Zrotation Yrotation Xrotation
					End Site #name: L_Foot
					{
						OFFSET 0.069299 -0.038670 0.119418
					}
				}
			}
		}
	}
	JOINT Pelvis_R_Hip
	{
		OFFSET 0.000000 0.000000 0.000000
		CHANNELS 3 Zrotation Yrotation Xrotation
		JOINT R_Hip
		{
			OFFSET -0.055334 -0.094904 -0.002373
			CHANNELS 3 Zrotation Yrotation Xrotation
			JOINT R_Knee
			{
				OFFSET -0.064207 -0.384370 -0.019592
				CHANNELS 3 Zrotation Yrotation Xrotation
				JOINT R_Ankle
				{
					OFFSET 0.025418 -0.419734 -0.065953
					CHANNELS 3 Zrotation Yrotation Xrotation
					End Site #name: R_Foot
					{
						OFFSET -0.057233 -0.039888 0.132134
					}
				}
			}
		}
	}
	JOINT Pelvis_Spine1
	{
		OFFSET 0.000000 0.000000 0.000000
		CHANNELS 3 Zrotation Yrotation Xrotation
		JOINT Spine1
		{
			OFFSET -0.005562 0.124093 -0.043360
			CHANNELS 3 Zrotation Yrotation Xrotation
			JOINT Spine2
			{
				OFFSET 0.012244 0.139499 0.029894
				CHANNELS 3 Zrotation Yrotation Xrotation
				JOINT Spine3
				{
					OFFSET -0.002556 0.056561 0.009225
					CHANNELS 3 Zrotation Yrotation Xrotation
					JOINT Spine3_Neck
					{
						OFFSET 0.000000 0.000000 0.000000
						CHANNELS 3 Zrotation Yrotation Xrotation
						JOINT Neck
						{
							OFFSET -0.005205 0.217920 -0.024551
							CHANNELS 3 Zrotation Yrotation Xrotation
							End Site #name: Head
							{
								OFFSET 0.002365 0.091850 0.046637
							}
						}
					}
					JOINT Spine3_L_Collar
					{
						OFFSET 0.000000 0.000000 0.000000
						CHANNELS 3 Zrotation Yrotation Xrotation
						JOINT L_Collar
						{
							OFFSET 0.072225 0.116603 -0.009480
							CHANNELS 3 Zrotation Yrotation Xrotation
							JOINT L_Shoulder
							{
								OFFSET 0.115937 -0.058643 -0.021018
								CHANNELS 3 Zrotation Yrotation Xrotation
								JOINT L_Elbow
								{
									OFFSET 0.021994 -0.254722 -0.024492
									CHANNELS 3 Zrotation Yrotation Xrotation
									End Site #name: L_Wrist
									{
										OFFSET 0.048810 -0.240214 0.103329
									}
								}
							}
						}
					}
					JOINT Spine3_R_Collar
					{
						OFFSET 0.000000 0.000000 0.000000
						CHANNELS 3 Zrotation Yrotation Xrotation
						JOINT R_Collar
						{
							OFFSET -0.073372 0.120704 -0.024611
							CHANNELS 3 Zrotation Yrotation Xrotation
							JOINT R_Shoulder
							{
								OFFSET -0.108089 -0.054969 -0.020504
								CHANNELS 3 Zrotation Yrotation Xrotation
								JOINT R_Elbow
								{
									OFFSET -0.033684 -0.260739 0.009889
									CHANNELS 3 Zrotation Yrotation Xrotation
									End Site #name: R_Wrist
									{
										OFFSET -0.067980 -0.232763 0.118463
									}
								}
							}
						}
					}
				}
			}
		}
	}
}
MOTION
Frames: 14
Frame Time: 0.041667
0.000000 0.938222 0.000000 -4.214330 -3.558389 7.269060 0.000000 0.000000 0.000000 2.927920 -1.739440 -6.969476 3.812040 -0.346467 0.571151 2.145858 5.486356 -0.668709 0.000000 0.000000 0.000000 -2.137788 1.669597 -10.117544 1.061031 -0.109756 1.000417 0.680685 -9.290677 9.380150 0.000000 0.000000 0.000000 9.082307 -0.232212 -10.866401 -2.675103 0.727826 4.213805 1.129220 2.627328 -0.166736 0.000000 0.000000 0.000000 -9.663264 4.936101 0.282652 0.000000 0.000000 0.000000 11.237454 -3.234987 0.047494 -18.700879 0.597566 -4.928249 1.032638 0.869652 2.236573 0.000000 0.000000 0.000000 -17.832419 11.398031 -4.583306 20.486985 -1.093297 6.023390 -8.636332 -4.730768 2.219918 
0.000039 0.938196 0.000442 -4.225489 -3.557689 7.266345 0.000000 0.000000 0.000000 2.905365 -1.724367 -6.900265 3.942969 -0.352290 0.478494 2.097664 5.356768 -0.658821 0.000000 0.000000 0.000000 -2.128194 1.657529 -10.037327 1.049234 -0.110789 0.945178 0.690904 -9.241208 9.354534 0.000000 0.000000 0.000000 9.143993 -0.237581 -10.880927 -2.679143 0.727066 4.192162 1.110528 2.630114 -0.221268 0.000000 0.000000 0.000000 -9.543818 4.887171 0.445985 0.000000 0.000000 0.000000 11.160834 -3.214767 0.047553 -18.666850 0.630725 -4.798891 0.995577 0.834348 2.127882 0.000000 0.000000 0.000000 -17.887525 11.407138 -4.587407 20.568407 -1.127458 6.125450 -8.628666 -4.723730 2.196046 
0.000048 0.938161 0.001039 -4.196581 -3.536452 7.214072 0.000000 0.000000 0.000000 2.882200 -1.708974 -6.829681 3.910504 -0.352973 0.539165 2.130366 5.322280 -0.744520 0.000000 0.000000 0.000000 -2.164972 1.635356 -9.900302 1.070141 -0.116890 0.894367 0.665725 -9.285064 9.339166 0.000000 0.000000 0.000000 9.112948 -0.210344 -11.011749 -2.651294 0.732746 4.348604 1.088589 2.553204 -0.177968 0.000000 0.000000 0.000000 -9.479856 4.865650 0.569593 0.000000 0.000000 0.000000 11.148363 -3.340234 -0.036662 -18.677184 0.681135 -4.610428 1.067820 0.863821 2.130109 0.000000 0.000000 0.000000 -17.831543 11.448409 -4.617454 20.566709 -1.126954 6.134674 -8.731146 -4.758685 2.145146 
0.000060 0.938138 0.001216 -4.205673 -3.546252 7.220408 0.000000 0.000000 0.000000 2.885684 -1.705670 -6.813682 3.856601 -0.347739 0.527098 2.167529 5.446327 -0.736848 0.000000 0.000000 0.000000 -2.150551 1.638070 -9.915537 1.067019 -0.114553 0.928804 0.663827 -9.239342 9.285730 0.000000 0.000000 0.000000 9.161543 -0.238454 -10.884789 -2.629805 0.721011 4.245655 1.043972 2.501467 -0.260488 0.000000 0.000000 0.000000 -9.423525 4.825574 0.445263 0.000000 0.000000 0.000000 11.133628 -3.275501 -0.002046 -18.660312 0.731897 -4.387393 1.064930 0.859999 2.116180 0.000000 0.000000 0.000000 -17.853370 11.423511 -4.592019 20.639070 -1.114029 6.091385 -8.769741 -4.761001 2.047550 
0.000055 0.938069 0.001664 -4.214939 -3.560740 7.218192 0.000000 0.000000 0.000000 2.918948 -1.703981 -6.802726 3.805505 -0.345233 0.560964 2.159500 5.464543 -0.709624 0.000000 0.000000 0.000000 -2.139258 1.628047 -9.848262 1.055452 -0.117593 0.835901 0.662908 -9.271084 9.314232 0.000000 0.000000 0.000000 9.166056 -0.223649 -10.973919 -2.603977 0.719150 4.292780 1.021289 2.462060 -0.185752 0.000000 0.000000 0.000000 -9.380867 4.798698 0.357699 0.000000 0.000000 0.000000 11.154196 -3.273613 0.000140 -18.677373 0.747206 -4.341743 1.127224 0.930438 2.358065 0.000000 0.000000 0.000000 -17.829749 11.412333 -4.579597 20.597979 -1.090238 6.017170 -8.777791 -4.764098 2.047549 
0.000116 0.938069 0.001579 -4.190806 -3.621140 7.264902 0.000000 0.000000 0.000000 2.865529 -1.713662 -6.853594 3.862768 -0.350749 0.565767 2.157863 5.461431 -0.709693 0.000000 0.000000 0.000000 -2.180811 1.643694 -9.953937 1.056170 -0.114333 0.897538 0.681497 -9.257934 9.340456 0.000000 0.000000 0.000000 9.181790 -0.231357 -10.946696 -2.620035 0.718465 4.238123 0.999965 2.460141 -0.283319 0.000000 0.000000 0.000000 -9.353052 4.785658 0.387241 0.000000 0.000000 0.000000 11.174219 -3.235830 0.023222 -18.697311 0.764732 -4.285489 1.222652 1.002911 2.538075 0.000000 0.000000 0.000000 -17.804410 11.432953 -4.592552 20.589839 -1.097160 6.061043 -8.820216 -4.793515 2.104378 
0.000134 0.938048 0.002508 -4.230156 -3.613151 7.222636 0.000000 0.000000 0.000000 2.893854 -1.706041 -6.815729 3.840545 -0.358584 0.738527 2.234579 5.532281 -0.813698 0.000000 0.000000 0.000000 -2.129163 1.621005 -9.799576 1.058511 -0.120409 0.790427 0.655338 -9.272544 9.290209 0.000000 0.000000 0.000000 9.246386 -0.209013 -11.117993 -2.601428 0.718315 4.288507 0.967281 2.415018 -0.229381 0.000000 0.000000 0.000000 -9.257106 4.743271 0.456655 0.000000 0.000000 0.000000 11.204296 -3.248769 0.018227 -18.675322 0.793923 -4.157582 1.245569 1.046896 2.728511 0.000000 0.000000 0.000000 -17.821268 11.348666 -4.524524 20.598266 -1.082018 5.992799 -8.721033 -4.765744 2.189337 
0.000217 0.937938 0.003027 -4.203621 -3.631176 7.110603 0.000000 0.000000 0.000000 2.873447 -1.651293 -6.559709 3.865736 -0.349484 0.538630 2.164887 5.311545 -0.820650 0.000000 0.000000 0.000000 -2.175314 1.607639 -9.721958 1.088791 -0.115836 0.967794 0.659485 -9.183881 9.207187 0.000000 0.000000 0.000000 9.234434 -0.229144 -10.984904 -2.612525 0.710891 4.154200 0.961398 2.401644 -0.219469 0.000000 0.000000 0.000000 -9.116978 4.672974 0.475779 0.000000 0.000000 0.000000 11.203843 -3.213178 0.039787 -18.588838 0.812966 -4.081230 1.240760 1.046094 2.730795 0.000000 0.000000 0.000000 -17.826416 11.247156 -4.445449 20.616696 -1.068392 5.959704 -8.717109 -4.762251 2.187860 
0.000353 0.937891 0.003619 -4.155431 -3.631100 6.938942 0.000000 0.000000 0.000000 2.788817 -1.607916 -6.366877 3.833853 -0.350611 0.600323 2.230740 5.373561 -0.908668 0.000000 0.000000 0.000000 -2.264316 1.578994 -9.551068 1.152032 -0.121295 1.058336 0.640772 -9.144354 9.119715 0.000000 0.000000 0.000000 9.200569 -0.239766 -10.884223 -2.615679 0.714532 4.195479 0.946144 2.379684 -0.192564 0.000000 0.000000 0.000000 -9.007963 4.630333 0.646477 0.000000 0.000000 0.000000 11.220775 -3.243288 0.022952 -18.562735 0.795250 -4.145108 1.301667 1.092162 2.848078 0.000000 0.000000 0.000000 -17.877410 11.210317 -4.412456 20.669702 -1.030380 5.829906 -8.738669 -4.814744 2.410919 
0.000518 0.937843 0.003499 -4.226749 -3.650996 7.010909 0.000000 0.000000 0.000000 2.893157 -1.650072 -6.553921 3.823076 -0.359407 0.777414 2.240736 5.328466 -0.958288 0.000000 0.000000 0.000000 -2.276987 1.629005 -9.877326 1.264117 -0.117724 1.479681 0.620563 -9.100512 9.022930 0.000000 0.000000 0.000000 9.301693 -0.246944 -10.921872 -2.595214 0.713220 4.234590 0.923020 2.409233 -0.230002 0.000000 0.000000 0.000000 -8.973259 4.614093 0.677991 0.000000 0.000000 0.000000 11.115977 -3.171903 0.052213 -18.519386 0.782229 -4.177272 1.405327 1.114591 2.748089 0.000000 0.000000 0.000000 -17.798814 11.256305 -4.454871 20.565877 -1.083912 6.011265 -8.811938 -4.810831 2.217818 
0.001117 0.938453 0.002129 -4.308673 -3.847891 6.958295 0.000000 0.000000 0.000000 2.935879 -1.687477 -6.731977 3.750821 -0.376849 1.189800 2.359056 5.530208 -1.064402 0.000000 0.000000 0.000000 -2.276742 1.725095 -10.503542 1.347201 -0.081293 2.445498 0.612196 -8.909863 8.787098 0.000000 0.000000 0.000000 9.428553 -0.365528 -10.333606 -2.569696 0.695587 4.061697 0.926893 2.510600 -0.366609 0.000000 0.000000 0.000000 -9.010656 4.632169 0.682489 0.000000 0.000000 0.000000 10.968302 -3.034105 0.111905 -18.513130 0.762453 -4.234445 1.352964 1.047414 2.499473 0.000000 0.000000 0.000000 -17.677452 11.413788 -4.578851 20.254512 -1.089864 6.059758 -8.750639 -4.775383 2.176415 
0.002163 0.938952 0.000509 -4.233231 -4.041824 6.751998 0.000000 0.000000 0.000000 2.855106 -1.729982 -6.945392 3.615487 -0.406894 1.957995 2.537626 5.529704 -1.421499 0.000000 0.000000 0.000000 -2.469076 1.793962 -10.995972 1.446887 -0.046088 3.455059 0.572630 -8.720672 8.479360 0.000000 0.000000 0.000000 9.347789 -0.502350 -9.469774 -2.572176 0.679622 3.830702 1.026821 2.544911 -0.178156 0.000000 0.000000 0.000000 -9.030295 4.619544 0.322213 0.000000 0.000000 0.000000 10.968972 -2.933900 0.169319 -18.628550 0.704130 -4.545774 1.370462 0.978263 2.084191 0.000000 0.000000 0.000000 -17.721683 11.448524 -4.588412 20.061866 -0.982268 5.712901 -8.771968 -4.743460 1.954039 
0.003877 0.939937 -0.002795 -4.157721 -4.470580 6.427963 0.000000 0.000000 0.000000 2.697356 -1.786782 -7.236546 3.392303 -0.438234 2.966269 2.809822 5.915007 -1.724683 0.000000 0.000000 0.000000 -2.646708 1.847943 -11.391887 1.475933 -0.010949 4.193266 0.646175 -8.626202 8.522813 0.000000 0.000000 0.000000 9.294521 -0.755415 -7.942219 -2.601097 0.679997 3.761144 1.199740 2.663868 -0.324239 0.000000 0.000000 0.000000 -9.130794 4.637592 -0.103217 0.000000 0.000000 0.000000 10.693801 -3.087736 0.014128 -18.444148 0.656435 -4.693294 1.454655 0.899141 1.474317 0.000000 0.000000 0.000000 -17.693596 11.823284 -4.851668 19.555344 -0.911379 5.530655 -8.861124 -4.703741 1.523072 
0.006499 0.940897 -0.006638 -4.055925 -4.831211 6.286845 0.000000 0.000000 0.000000 2.740056 -2.030712 -8.395389 2.678880 -0.461336 5.230766 3.389695 6.454882 -2.556351 0.000000 0.000000 0.000000 -2.875666 1.890619 -11.725380 1.419081 0.017576 4.490375 0.773987 -8.301673 8.479497 0.000000 0.000000 0.000000 9.192428 -1.025119 -6.269776 -2.597525 0.653596 3.404192 1.296596 2.678356 -0.210095 0.000000 0.000000 0.000000 -9.270825 4.674318 -0.593208 0.000000 0.000000 0.000000 10.755301 -3.158841 -0.036529 -18.442934 0.593430 -4.980762 1.455499 0.793823 0.906091 0.000000 0.000000 0.000000 -17.715709 12.074689 -5.012378 18.940260 -0.757582 5.048512 -8.857303 -4.629927 1.139546 
